<svg xmlns="http://www.w3.org/2000/svg" xmlns:xlink="http://www.w3.org/1999/xlink" width="500" zoomAndPan="magnify" viewBox="0 0 375 374.999991" height="500" preserveAspectRatio="xMidYMid meet" version="1.0"><defs><g/></defs><g fill="#001a3a" fill-opacity="1"><g transform="translate(51.312216, 197.840183)"><g><path d="M 19.292969 0 C 32.597656 0 40.910156 -7.148438 40.910156 -20.394531 C 40.910156 -33.585938 32.597656 -40.675781 19.292969 -40.675781 L 1.628906 -40.675781 L 1.628906 0 Z M 21.035156 -23.535156 C 25.042969 -23.535156 27.601562 -22.488281 27.601562 -20.339844 C 27.601562 -18.1875 25.042969 -17.199219 21.035156 -17.199219 L 14.933594 -17.199219 L 14.933594 -23.535156 Z M 21.035156 -23.535156 "/></g></g></g><g fill="#001a3a" fill-opacity="1"><g transform="translate(93.259513, 197.840183)"><g><path d="M 18.128906 0.871094 C 22.894531 0.871094 27.660156 -0.175781 30.390625 -1.394531 L 30.042969 -12.550781 C 27.3125 -11.214844 24.464844 -10.519531 20.28125 -10.519531 C 16.039062 -10.519531 12.378906 -11.332031 12.261719 -13.015625 L 31.726562 -13.015625 C 31.84375 -13.421875 32.019531 -14.179688 32.019531 -15.398438 C 32.019531 -24.230469 26.496094 -29.925781 16.617188 -29.925781 C 7.03125 -29.925781 0.699219 -24.171875 0.699219 -14.644531 C 0.699219 -5.171875 6.855469 0.871094 18.128906 0.871094 Z M 12.203125 -15.222656 C 12.726562 -17.78125 14.585938 -18.769531 16.675781 -18.769531 C 19.117188 -18.769531 20.917969 -17.492188 21.09375 -15.222656 Z M 12.203125 -15.222656 "/></g></g></g><g fill="#001a3a" fill-opacity="1"><g transform="translate(125.969114, 197.840183)"><g><path d="M 13.421875 -13.363281 L 15.167969 -40.675781 L 1.277344 -40.675781 L 1.277344 0 L 18.886719 0 L 18.886719 -13.363281 Z M 13.421875 -13.363281 "/></g></g></g><g fill="#001a3a" fill-opacity="1"><g transform="translate(145.083603, 197.840183)"><g><path d="M 10.167969 -30.507812 C 14.992188 -30.507812 17.550781 -32.949219 17.550781 -36.375 C 17.550781 -39.746094 14.992188 -42.128906 10.167969 -42.128906 C 5.402344 -42.128906 2.789062 -39.746094 2.789062 -36.375 C 2.789062 -32.949219 5.402344 -30.507812 10.167969 -30.507812 Z M 17.550781 0 L 17.550781 -29.054688 L 0.347656 -29.054688 L 0.347656 -15.6875 L 5.402344 -15.6875 L 5.402344 0 Z M 17.550781 0 "/></g></g></g><g fill="#001a3a" fill-opacity="1"><g transform="translate(163.7333, 197.840183)"><g><path d="M 17.433594 0.871094 C 21.09375 0.871094 25.976562 0.289062 28.707031 -0.699219 L 28.707031 -14.238281 C 26.265625 -13.074219 22.664062 -12.433594 20.046875 -12.433594 C 15.339844 -12.433594 12.492188 -12.957031 12.492188 -14.644531 C 12.492188 -16.097656 14.644531 -16.734375 19.292969 -16.734375 C 21.558594 -16.734375 24.988281 -16.097656 27.078125 -15.222656 L 27.835938 -28.648438 C 25.683594 -29.34375 21.210938 -29.925781 17.492188 -29.925781 C 7.03125 -29.925781 0.699219 -23.882812 0.699219 -14.527344 C 0.699219 -5.289062 7.089844 0.871094 17.433594 0.871094 Z M 17.433594 0.871094 "/></g></g></g><g fill="#001a3a" fill-opacity="1"><g transform="translate(193.189372, 197.840183)"><g><path d="M 10.167969 -30.507812 C 14.992188 -30.507812 17.550781 -32.949219 17.550781 -36.375 C 17.550781 -39.746094 14.992188 -42.128906 10.167969 -42.128906 C 5.402344 -42.128906 2.789062 -39.746094 2.789062 -36.375 C 2.789062 -32.949219 5.402344 -30.507812 10.167969 -30.507812 Z M 17.550781 0 L 17.550781 -29.054688 L 0.347656 -29.054688 L 0.347656 -15.6875 L 5.402344 -15.6875 L 5.402344 0 Z M 17.550781 0 "/></g></g></g><g fill="#001a3a" fill-opacity="1"><g transform="translate(211.839069, 197.840183)"><g><path d="M 17.316406 0.871094 C 27.777344 0.871094 34.050781 -4.882812 34.050781 -14.527344 C 34.050781 -24.171875 27.777344 -29.925781 17.316406 -29.925781 C 6.914062 -29.925781 0.699219 -24.171875 0.699219 -14.527344 C 0.699219 -4.882812 6.914062 0.871094 17.316406 0.871094 Z M 17.316406 -12.261719 C 13.597656 -12.261719 11.621094 -13.132812 11.621094 -14.527344 C 11.621094 -15.921875 13.597656 -16.851562 17.316406 -16.851562 C 21.152344 -16.851562 23.128906 -15.921875 23.128906 -14.527344 C 23.128906 -13.132812 21.152344 -12.261719 17.316406 -12.261719 Z M 17.316406 -12.261719 "/></g></g></g><g fill="#001a3a" fill-opacity="1"><g transform="translate(246.582122, 197.840183)"><g><path d="M 10.519531 0.871094 C 16.039062 0.871094 19.234375 -4.53125 19.875 -11.039062 L 20.628906 -11.039062 L 19.582031 0 L 32.832031 0 L 32.832031 -29.054688 L 19.699219 -29.054688 L 20.570312 -18.945312 C 20.917969 -15.222656 19.292969 -12.898438 16.734375 -12.898438 C 13.714844 -12.898438 13.132812 -15.398438 13.539062 -18.421875 L 14.703125 -29.054688 L 1.046875 -29.054688 L 1.046875 -11.097656 C 1.046875 -3.371094 3.601562 0.871094 10.519531 0.871094 Z M 10.519531 0.871094 "/></g></g></g><g fill="#001a3a" fill-opacity="1"><g transform="translate(280.686099, 197.840183)"><g><path d="M 14.585938 0.871094 C 24.523438 0.871094 30.507812 -2.265625 30.507812 -8.136719 C 30.507812 -18.128906 12.378906 -15.632812 12.378906 -17.433594 C 12.378906 -18.480469 14.0625 -18.59375 16.96875 -18.59375 C 21.324219 -18.59375 25.511719 -17.316406 27.777344 -15.980469 L 27.660156 -28.125 C 23.824219 -29.34375 19.757812 -29.925781 15.746094 -29.925781 C 5.8125 -29.925781 0.464844 -26.730469 0.464844 -21.558594 C 0.464844 -11.273438 18.59375 -14.816406 18.59375 -12.550781 C 18.59375 -11.332031 16.851562 -11.273438 13.480469 -11.273438 C 10.054688 -11.273438 4.53125 -12.378906 0.464844 -14.351562 L 0.464844 -1.046875 C 4.007812 -0.0585938 10.867188 0.871094 14.585938 0.871094 Z M 14.585938 0.871094 "/></g></g></g><g fill="#001a3a" fill-opacity="1"><g transform="translate(311.652738, 197.840183)"><g><path d="M 9.125 0.640625 C 12.785156 0.640625 15.6875 -1.800781 15.6875 -5.347656 C 15.6875 -8.949219 12.785156 -11.390625 9.125 -11.390625 C 5.460938 -11.390625 2.558594 -8.949219 2.558594 -5.347656 C 2.558594 -1.800781 5.460938 0.640625 9.125 0.640625 Z M 9.125 0.640625 "/></g></g></g></svg>